<svg width="202" height="800" viewBox="0 0 202 800" fill="none" xmlns="http://www.w3.org/2000/svg">
<path d="M2.25857 379.996C2.26543 379.427 1.8299 378.981 1.29242 378.974C0.733397 378.967 0.27665 379.403 0.269783 379.972C0.263435 380.499 0.709433 380.956 1.26846 380.963C1.80594 380.969 2.25222 380.523 2.25857 379.996Z" fill="#258FDC"/>
<path d="M4.1528 395.899C4.16019 395.287 3.69293 394.797 3.06951 394.79C2.47824 394.783 1.9886 395.261 1.98122 395.873C1.97409 396.465 2.45207 396.954 3.04335 396.961C3.66676 396.969 4.14568 396.491 4.1528 395.899Z" fill="#258FDC"/>
<path d="M4.31456 411.9C4.3213 411.341 3.87557 410.862 3.295 410.855C2.71455 410.848 2.2466 411.316 2.23986 411.875C2.23287 412.455 2.68955 412.923 3.27 412.93C3.85056 412.937 4.30757 412.48 4.31456 411.9Z" fill="#258FDC"/>
<path d="M3.07953 427.862C3.08743 427.206 2.56713 426.663 1.90063 426.655C1.25555 426.647 0.711604 427.178 0.703701 427.834C0.69567 428.5 1.22693 429.022 1.872 429.03C2.5385 429.038 3.07149 428.529 3.07953 427.862Z" fill="#258FDC"/>
<path d="M0.158768 443.6C0.167188 442.901 -0.385104 442.346 -1.07314 442.338C-1.75047 442.33 -2.3161 442.871 -2.32452 443.57C-2.33281 444.258 -1.78039 444.813 -1.10307 444.821C-0.415028 444.829 0.150477 444.288 0.158768 443.6Z" fill="#258FDC"/>
<path d="M1.85589 323.287C1.86198 322.781 1.45857 322.357 0.942513 322.351C0.437285 322.345 0.00222227 322.759 -0.00386569 323.264C-0.0100842 323.78 0.414873 324.205 0.920102 324.211C1.43616 324.217 1.84968 323.803 1.85589 323.287Z" fill="#258FDC"/>
<path d="M8.6373 337.808C8.64352 337.292 8.25107 336.846 7.7243 336.84C7.20836 336.834 6.77304 337.27 6.76683 337.786C6.76035 338.323 7.18556 338.726 7.7015 338.732C8.22827 338.739 8.63082 338.346 8.6373 337.808Z" fill="#258FDC"/>
<path d="M14.0574 352.883C14.0636 352.367 13.6495 351.942 13.1764 351.937C12.6712 351.931 12.2577 352.345 12.2515 352.861C12.2458 353.334 12.6496 353.726 13.1548 353.732C13.6279 353.738 14.0517 353.356 14.0574 352.883Z" fill="#258FDC"/>
<path d="M18.2038 368.361C18.2104 367.813 17.7751 367.356 17.2375 367.35C16.6893 367.343 16.2432 367.789 16.2366 368.338C16.2302 368.864 16.6655 369.321 17.2137 369.328C17.7513 369.334 18.1975 368.888 18.2038 368.361Z" fill="#258FDC"/>
<path d="M20.9381 384.146C20.9451 383.565 20.4777 383.097 19.908 383.09C19.3383 383.083 18.8704 383.54 18.8634 384.121C18.8567 384.68 19.3133 385.158 19.883 385.165C20.4527 385.172 20.9314 384.705 20.9381 384.146Z" fill="#258FDC"/>
<path d="M22.1866 400.095C22.1931 399.557 21.7153 399.057 21.1562 399.05C20.565 399.043 20.0969 399.532 20.0904 400.069C20.0834 400.65 20.5398 401.128 21.1311 401.136C21.6901 401.142 22.1796 400.675 22.1866 400.095Z" fill="#258FDC"/>
<path d="M21.9936 416.112C22.0006 415.532 21.5223 415.064 20.9633 415.057C20.372 415.05 19.9043 415.507 19.8973 416.087C19.8903 416.668 20.347 417.125 20.9383 417.132C21.4973 417.139 21.9866 416.693 21.9936 416.112Z" fill="#258FDC"/>
<path d="M20.361 432.038C20.3679 431.468 19.9006 430.989 19.3309 430.983C18.7611 430.976 18.2932 431.443 18.2863 432.013C18.2793 432.593 18.7361 433.051 19.3059 433.057C19.8756 433.064 20.354 432.618 20.361 432.038Z" fill="#258FDC"/>
<path d="M17.5481 447.766C17.5565 447.067 17.0044 446.491 16.2841 446.482C15.5639 446.474 14.998 447.037 14.9896 447.735C14.9808 448.466 15.533 449.043 16.2531 449.052C16.9734 449.06 17.5393 448.497 17.5481 447.766Z" fill="#258FDC"/>
<path d="M13.0188 463.162C13.0268 462.495 12.4847 461.972 11.8505 461.965C11.184 461.957 10.6296 462.466 10.6216 463.133C10.6138 463.778 11.1554 464.333 11.8219 464.341C12.4561 464.348 13.011 463.807 13.0188 463.162Z" fill="#258FDC"/>
<path d="M7.30202 478.081C7.3107 477.36 6.73686 476.794 6.03811 476.786C5.31782 476.777 4.73064 477.329 4.72196 478.05C4.71328 478.77 5.28699 479.336 6.00728 479.345C6.70603 479.353 7.29334 478.801 7.30202 478.081Z" fill="#258FDC"/>
<path d="M0.032749 492.422C0.0403916 491.787 -0.480163 491.276 -1.09298 491.268C-1.71651 491.261 -2.24938 491.76 -2.25702 492.394C-2.26453 493.018 -1.74398 493.54 -1.12045 493.548C-0.507626 493.555 0.0252355 493.045 0.032749 492.422Z" fill="#258FDC"/>
<path d="M8.5629 298.477C8.57314 297.628 7.8828 296.921 7.03361 296.911C6.18431 296.9 5.48785 297.591 5.47761 298.44C5.46764 299.268 6.14739 299.964 6.9967 299.974C7.84588 299.985 8.55293 299.305 8.5629 298.477Z" fill="#258FDC"/>
<path d="M16.6332 312.219C16.6426 311.434 16.0155 310.835 15.2523 310.826C14.4997 310.817 13.8584 311.4 13.8489 312.185C13.8397 312.948 14.4667 313.558 15.2192 313.567C15.9825 313.576 16.624 312.982 16.6332 312.219Z" fill="#258FDC"/>
<path d="M23.438 326.578C23.4455 325.955 22.9465 325.433 22.323 325.425C21.6888 325.418 21.1665 325.928 21.159 326.551C21.1513 327.185 21.6617 327.664 22.2959 327.672C22.9195 327.68 23.4304 327.213 23.438 326.578Z" fill="#258FDC"/>
<path d="M29.2257 341.486C29.2331 340.873 28.7655 340.426 28.2064 340.42C27.6259 340.413 27.1583 340.848 27.1509 341.461C27.1443 342.009 27.6009 342.488 28.1814 342.494C28.7405 342.501 29.2191 342.034 29.2257 341.486Z" fill="#258FDC"/>
<path d="M33.9655 356.789C33.973 356.165 33.4629 355.664 32.8394 355.657C32.1944 355.649 31.6939 356.138 31.6864 356.761C31.6788 357.395 32.1671 357.918 32.812 357.925C33.4356 357.933 33.9578 357.423 33.9655 356.789Z" fill="#258FDC"/>
<path d="M37.3358 372.441C37.3431 371.839 36.8442 371.306 36.2206 371.299C35.5864 371.291 35.0533 371.812 35.046 372.413C35.0384 373.048 35.5588 373.581 36.1931 373.588C36.8166 373.596 37.3282 373.075 37.3358 372.441Z" fill="#258FDC"/>
<path d="M39.4235 388.347C39.4311 387.713 38.9321 387.19 38.3086 387.183C37.6743 387.175 37.152 387.685 37.1444 388.319C37.1369 388.943 37.6469 389.454 38.2811 389.462C38.9046 389.469 39.416 388.97 39.4235 388.347Z" fill="#258FDC"/>
<path d="M40.1447 404.332C40.152 403.73 39.6847 403.241 39.0936 403.234C38.4915 403.227 37.9911 403.704 37.9838 404.306C37.9767 404.898 38.4653 405.398 39.0674 405.405C39.6586 405.412 40.1376 404.924 40.1447 404.332Z" fill="#258FDC"/>
<path d="M39.5542 420.324C39.5606 419.797 39.1252 419.34 38.5555 419.334C38.0073 419.327 37.5718 419.773 37.5655 420.3C37.5586 420.87 37.9833 421.316 38.5315 421.322C39.1012 421.329 39.5474 420.894 39.5542 420.324Z" fill="#258FDC"/>
<path d="M37.6746 436.235C37.6809 435.709 37.2557 435.306 36.7396 435.299C36.2237 435.293 35.7996 435.686 35.7933 436.213C35.787 436.729 36.2012 437.164 36.7171 437.17C37.2332 437.176 37.6683 436.751 37.6746 436.235Z" fill="#258FDC"/>
<path d="M34.7111 451.962C34.7185 451.349 34.2191 450.859 33.6279 450.852C33.0366 450.845 32.5255 451.323 32.5181 451.936C32.511 452.527 33.0105 453.006 33.6018 453.013C34.1931 453.02 34.704 452.553 34.7111 451.962Z" fill="#258FDC"/>
<path d="M30.3216 467.348C30.3287 466.757 29.8402 466.257 29.2382 466.249C28.6469 466.242 28.168 466.731 28.1609 467.322C28.1533 467.946 28.6206 468.424 29.2119 468.432C29.8139 468.439 30.3141 467.972 30.3216 467.348Z" fill="#258FDC"/>
<path d="M24.8402 482.367C24.8484 481.679 24.3069 481.113 23.6404 481.105C22.9523 481.097 22.3867 481.649 22.3784 482.337C22.3704 483.004 22.9227 483.559 23.6107 483.567C24.2772 483.575 24.8321 483.033 24.8402 482.367Z" fill="#258FDC"/>
<path d="M17.9675 496.831C17.9752 496.197 17.455 495.642 16.7885 495.634C16.1434 495.626 15.5993 496.168 15.5917 496.802C15.5837 497.469 16.1149 497.991 16.76 497.999C17.4265 498.007 17.9595 497.497 17.9675 496.831Z" fill="#258FDC"/>
<path d="M9.94055 510.722C9.94806 510.099 9.43834 509.577 8.8041 509.569C8.18057 509.562 7.66899 510.072 7.66148 510.695C7.65384 511.329 8.15336 511.819 8.7769 511.827C9.41114 511.834 9.9329 511.357 9.94055 510.722Z" fill="#258FDC"/>
<path d="M0.804305 523.88C0.81143 523.289 0.311903 522.81 -0.279375 522.803C-0.881364 522.796 -1.38158 523.263 -1.3887 523.854C-1.39622 524.477 -0.907401 524.956 -0.305412 524.964C0.285866 524.971 0.796792 524.504 0.804305 523.88Z" fill="#258FDC"/>
<path d="M3.00039 262.22C3.0101 261.413 2.35176 260.728 1.53471 260.718C0.685522 260.708 0.0108694 261.377 0.00115304 262.184C-0.00869096 263.001 0.649768 263.675 1.49896 263.685C2.31601 263.695 2.99054 263.037 3.00039 262.22V262.22Z" fill="#258FDC"/>
<path d="M13.0887 274.447C13.0969 273.76 12.5234 273.183 11.8246 273.174C11.1043 273.166 10.5169 273.728 10.5086 274.416C10.4994 275.18 11.0735 275.724 11.7938 275.733C12.4925 275.741 13.0795 275.211 13.0887 274.447V274.447Z" fill="#258FDC"/>
<path d="M21.9955 287.468C22.001 287.016 21.6186 286.625 21.1672 286.619C20.7049 286.614 20.3239 286.996 20.3185 287.447C20.3128 287.921 20.6847 288.291 21.1469 288.296C21.5984 288.302 21.9898 287.941 21.9955 287.468Z" fill="#258FDC"/>
<path d="M30.2499 301.104C30.2547 300.706 29.9146 300.379 29.5168 300.374C29.0975 300.369 28.7712 300.688 28.7664 301.086C28.7611 301.526 29.0799 301.831 29.4992 301.836C29.897 301.841 30.2446 301.544 30.2499 301.104Z" fill="#258FDC"/>
<path d="M37.6148 315.385C37.6201 314.944 37.2699 314.563 36.8292 314.558C36.3991 314.553 36.0291 314.925 36.0238 315.366C36.0187 315.785 36.38 316.144 36.81 316.149C37.2507 316.154 37.6098 315.804 37.6148 315.385Z" fill="#258FDC"/>
<path d="M44.0816 330.139C44.0885 329.569 43.6319 329.091 43.0513 329.084C42.4923 329.077 42.0136 329.544 42.0068 330.114C42.0003 330.651 42.4673 331.152 43.0263 331.158C43.6069 331.165 44.0751 330.676 44.0816 330.139Z" fill="#258FDC"/>
<path d="M49.2853 345.308C49.2928 344.684 48.7939 344.151 48.1811 344.144C47.5362 344.136 47.0138 344.657 47.0062 345.28C46.9986 345.915 47.5083 346.448 48.1533 346.455C48.7661 346.463 49.2777 345.942 49.2853 345.308Z" fill="#258FDC"/>
<path d="M53.2486 360.827C53.256 360.215 52.757 359.682 52.1335 359.674C51.4992 359.667 50.9769 360.187 50.9695 360.8C50.962 361.423 51.4718 361.946 52.106 361.953C52.7295 361.961 53.2411 361.451 53.2486 360.827Z" fill="#258FDC"/>
<path d="M55.8433 376.588C55.8495 376.072 55.4243 375.669 54.9082 375.663C54.3922 375.657 53.9682 376.05 53.962 376.566C53.9557 377.082 54.3697 377.517 54.8858 377.523C55.4019 377.529 55.8371 377.104 55.8433 376.588Z" fill="#258FDC"/>
<path d="M57.4466 392.542C57.4529 392.015 57.0278 391.601 56.5118 391.595C55.9958 391.589 55.5609 391.992 55.5545 392.519C55.5483 393.035 55.9733 393.459 56.4892 393.466C57.0053 393.472 57.4404 393.058 57.4466 392.542Z" fill="#258FDC"/>
<path d="M57.9097 408.546C57.9163 407.998 57.47 407.552 56.9217 407.545C56.3735 407.539 55.9275 407.974 55.9209 408.522C55.9144 409.06 56.3498 409.506 56.898 409.512C57.4463 409.519 57.9032 409.084 57.9097 408.546Z" fill="#258FDC"/>
<path d="M56.9967 424.534C57.0028 424.028 56.6311 423.648 56.1257 423.642C55.6528 423.636 55.2289 424.007 55.2228 424.512C55.2168 425.018 55.6314 425.41 56.1044 425.415C56.6097 425.422 56.9906 425.039 56.9967 424.534Z" fill="#258FDC"/>
<path d="M54.9774 440.422C54.9828 439.971 54.6003 439.59 54.1381 439.584C53.6758 439.579 53.3058 439.95 53.3003 440.402C53.2948 440.864 53.6556 441.256 54.1179 441.261C54.5801 441.267 54.9718 440.884 54.9774 440.422Z" fill="#258FDC"/>
<path d="M51.896 456.126C51.9023 455.599 51.5095 455.186 50.9827 455.179C50.4561 455.173 50.0318 455.576 50.0255 456.103C50.0193 456.619 50.4334 457.054 50.9601 457.06C51.4868 457.067 51.8898 456.642 51.896 456.126Z" fill="#258FDC"/>
<path d="M47.7107 471.536C47.7178 470.945 47.2504 470.466 46.6592 470.459C46.0465 470.452 45.557 470.919 45.5498 471.51C45.5424 472.123 46.0204 472.613 46.6331 472.62C47.2244 472.627 47.7033 472.149 47.7107 471.536Z" fill="#258FDC"/>
<path d="M42.3146 486.599C42.3221 485.975 41.8124 485.453 41.1673 485.445C40.5438 485.438 40.043 485.948 40.0355 486.571C40.0277 487.216 40.5163 487.717 41.1398 487.724C41.7849 487.732 42.3068 487.244 42.3146 486.599Z" fill="#258FDC"/>
<path d="M35.7197 501.195C35.7272 500.572 35.2174 500.06 34.5939 500.053C33.9596 500.045 33.459 500.544 33.4515 501.168C33.4438 501.802 33.9321 502.324 34.5664 502.332C35.1899 502.339 35.7121 501.829 35.7197 501.195Z" fill="#258FDC"/>
<path d="M28.067 515.274C28.0746 514.64 27.5649 514.118 26.9414 514.11C26.3071 514.103 25.8064 514.613 25.7988 515.247C25.7912 515.87 26.2797 516.382 26.9139 516.389C27.5374 516.397 28.0595 515.898 28.067 515.274Z" fill="#258FDC"/>
<path d="M19.282 528.726C19.2889 528.156 18.8322 527.689 18.2625 527.682C17.6819 527.675 17.2141 528.131 17.2072 528.701C17.2003 529.271 17.6569 529.75 18.2375 529.757C18.8072 529.763 19.2752 529.296 19.282 528.726Z" fill="#258FDC"/>
<path d="M10.0213 541.506C10.0309 540.711 9.38297 540.047 8.609 540.038C7.81349 540.028 7.1498 540.676 7.14021 541.471C7.13076 542.256 7.77878 542.909 8.57429 542.919C9.34826 542.928 10.0118 542.291 10.0213 541.506Z" fill="#258FDC"/>
<path d="M0.318327 553.506C0.333612 552.238 -0.696535 551.183 -1.96514 551.167C-3.26588 551.152 -4.32116 552.182 -4.33645 553.45C-4.35225 554.762 -3.32197 555.806 -2.02123 555.822C-0.752626 555.837 0.302524 554.818 0.318327 553.506Z" fill="#258FDC"/>
<path d="M6.19676 239.669C6.20777 238.755 5.48597 237.983 4.56144 237.972C3.61538 237.96 2.86446 238.715 2.85345 239.628C2.84244 240.542 3.57522 241.293 4.52129 241.304C5.44581 241.315 6.18575 240.582 6.19676 239.669Z" fill="#258FDC"/>
<path d="M17.2501 251.209C17.2608 250.317 16.5279 249.567 15.6356 249.556C14.7327 249.545 14.0034 250.278 13.9927 251.17C13.9817 252.084 14.693 252.834 15.596 252.845C16.4883 252.856 17.239 252.123 17.2501 251.209Z" fill="#258FDC"/>
<path d="M27.1334 263.521C27.1414 262.855 26.5783 262.289 25.9011 262.281C25.2238 262.272 24.6473 262.825 24.6393 263.491C24.6314 264.147 25.1944 264.713 25.8717 264.721C26.5489 264.729 27.1255 264.177 27.1334 263.521Z" fill="#258FDC"/>
<path d="M35.9655 276.476C35.9699 276.11 35.6622 275.773 35.2966 275.769C34.9096 275.764 34.5831 276.094 34.5787 276.459C34.5743 276.825 34.8927 277.173 35.2796 277.177C35.6452 277.182 35.9611 276.841 35.9655 276.476Z" fill="#258FDC"/>
<path d="M44.2957 290.059C44.2993 289.758 44.044 289.54 43.7537 289.536C43.4527 289.533 43.2136 289.745 43.21 290.046C43.2065 290.336 43.4399 290.597 43.7409 290.6C44.0311 290.604 44.2922 290.349 44.2957 290.059Z" fill="#258FDC"/>
<path d="M51.92 304.225C51.9245 303.849 51.6271 303.555 51.2723 303.55C50.9175 303.546 50.6238 303.833 50.6193 304.209C50.6151 304.553 50.9019 304.836 51.2567 304.84C51.6115 304.845 51.9159 304.569 51.92 304.225Z" fill="#258FDC"/>
<path d="M58.5716 318.82C58.5764 318.422 58.2262 318.031 57.8071 318.026C57.3662 318.021 57.0069 318.404 57.0021 318.801C56.9967 319.253 57.3469 319.622 57.7878 319.628C58.2069 319.633 58.5661 319.272 58.5716 318.82Z" fill="#258FDC"/>
<path d="M64.0777 333.885C64.083 333.444 63.7328 333.064 63.292 333.058C62.862 333.053 62.5134 333.425 62.5081 333.866C62.5031 334.285 62.8427 334.655 63.2727 334.66C63.7135 334.665 64.0727 334.304 64.0777 333.885Z" fill="#258FDC"/>
<path d="M68.3435 349.268C68.3473 348.946 68.06 348.695 67.7483 348.691C67.4151 348.687 67.1541 348.931 67.1502 349.254C67.1461 349.598 67.401 349.859 67.7342 349.863C68.0459 349.867 68.3393 349.612 68.3435 349.268Z" fill="#258FDC"/>
<path d="M71.4664 364.917C71.4686 364.735 71.2984 364.582 71.1156 364.58C70.9222 364.578 70.7591 364.726 70.7569 364.909C70.7544 365.113 70.914 365.255 71.1074 365.257C71.2902 365.259 71.4639 365.122 71.4664 364.917Z" fill="#258FDC"/>
<path d="M73.6516 380.771C73.6533 380.631 73.5361 380.544 73.3963 380.542C73.2566 380.54 73.1481 380.625 73.1464 380.765C73.1449 380.894 73.2509 381.013 73.3906 381.015C73.5304 381.017 73.6501 380.9 73.6516 380.771Z" fill="#258FDC"/>
<path d="M74.8893 396.73C74.8911 396.58 74.7531 396.438 74.5918 396.436C74.4413 396.435 74.2891 396.572 74.2873 396.723C74.2854 396.884 74.4341 397.026 74.5847 397.028C74.746 397.03 74.8874 396.891 74.8893 396.73Z" fill="#258FDC"/>
<path d="M75.4596 412.757C75.4645 412.349 75.1252 411.958 74.6843 411.952C74.2543 411.947 73.8735 412.33 73.8685 412.738C73.8632 413.179 74.2352 413.538 74.6652 413.543C75.106 413.549 75.4542 413.198 75.4596 412.757Z" fill="#258FDC"/>
<path d="M74.6432 428.746C74.6498 428.198 74.2144 427.752 73.6769 427.745C73.1179 427.739 72.661 428.174 72.6544 428.722C72.6479 429.26 73.0942 429.706 73.6532 429.713C74.1907 429.719 74.6367 429.284 74.6432 428.746Z" fill="#258FDC"/>
<path d="M72.2586 444.619C72.2636 444.2 71.9558 443.874 71.5258 443.869C71.1281 443.864 70.7801 444.182 70.7751 444.601C70.7703 444.999 71.1102 445.347 71.5079 445.352C71.938 445.357 72.2538 445.017 72.2586 444.619Z" fill="#258FDC"/>
<path d="M69.0053 460.31C69.0099 459.933 68.7125 459.618 68.3256 459.613C67.9278 459.609 67.6338 459.917 67.6293 460.293C67.6247 460.669 67.9113 460.985 68.309 460.989C68.6959 460.994 69.0008 460.686 69.0053 460.31Z" fill="#258FDC"/>
<path d="M65.0669 475.745C65.0738 475.175 64.6172 474.696 64.0475 474.689C63.4777 474.683 62.9882 475.15 62.9814 475.719C62.9745 476.289 63.4526 476.768 64.0223 476.775C64.5921 476.782 65.06 476.314 65.0669 475.745Z" fill="#258FDC"/>
<path d="M59.8209 490.842C59.8285 490.207 59.3294 489.696 58.7059 489.688C58.0716 489.681 57.5603 490.18 57.5527 490.814C57.5452 491.438 58.0442 491.96 58.6784 491.968C59.3019 491.975 59.8134 491.465 59.8209 490.842Z" fill="#258FDC"/>
<path d="M53.5047 505.539C53.5127 504.872 52.9921 504.35 52.3364 504.342C51.6699 504.334 51.1477 504.844 51.1397 505.51C51.1318 506.166 51.6414 506.699 52.3079 506.707C52.9636 506.715 53.4968 506.194 53.5047 505.539Z" fill="#258FDC"/>
<path d="M46.2372 519.751C46.2456 519.052 45.6613 518.464 44.9625 518.456C44.253 518.447 43.6869 519.021 43.6785 519.72C43.6698 520.44 44.2219 521.027 44.9314 521.036C45.6302 521.044 46.2285 520.471 46.2372 519.751Z" fill="#258FDC"/>
<path d="M37.6002 533.419C37.6065 532.893 37.1819 532.447 36.6335 532.44C36.0745 532.433 35.6392 532.869 35.6328 533.396C35.626 533.965 36.0507 534.411 36.6097 534.418C37.158 534.425 37.5933 533.989 37.6002 533.419Z" fill="#258FDC"/>
<path d="M28.9378 546.508C28.9483 545.637 28.2579 544.93 27.3872 544.919C26.5163 544.909 25.7769 545.599 25.7664 546.469C25.7559 547.34 26.4781 548.08 27.349 548.09C28.2197 548.101 28.9273 547.378 28.9378 546.508Z" fill="#258FDC"/>
<path d="M19.9611 558.914C19.9791 557.42 18.7576 556.18 17.2634 556.162C15.7691 556.144 14.5288 557.355 14.5108 558.849C14.4927 560.354 15.7034 561.594 17.1977 561.612C18.6919 561.63 19.9429 560.419 19.9611 558.914Z" fill="#258FDC"/>
<path d="M9.67043 570.617C9.69323 568.725 8.18536 567.159 6.30406 567.136C4.40133 567.113 2.87758 568.643 2.85478 570.535C2.83224 572.406 4.31881 573.961 6.22154 573.984C8.10285 574.007 9.64789 572.488 9.67043 570.617Z" fill="#258FDC"/>
<path d="M8.7301 217.69C8.74163 216.734 7.99855 215.94 7.03106 215.928C6.07428 215.917 5.28013 216.692 5.26861 217.649C5.25695 218.616 6.0323 219.4 6.98908 219.411C7.95658 219.423 8.71844 218.658 8.7301 217.69V217.69Z" fill="#258FDC"/>
<path d="M19.9632 228.599C19.9715 227.911 19.4301 227.335 18.7528 227.326C18.0541 227.318 17.499 227.881 17.4907 228.569C17.4824 229.257 18.024 229.812 18.7228 229.82C19.4001 229.829 19.9549 229.287 19.9632 228.599Z" fill="#258FDC"/>
<path d="M30.4244 240.208C30.4287 239.853 30.1205 239.559 29.7443 239.555C29.3572 239.55 29.0634 239.837 29.0592 240.191C29.0541 240.611 29.3408 240.915 29.7278 240.92C30.104 240.924 30.4193 240.627 30.4244 240.208Z" fill="#258FDC"/>
<path d="M40.5222 252.554C40.5261 252.232 40.2815 252.003 39.9805 251.999C39.6688 251.996 39.4296 252.219 39.4257 252.541C39.422 252.842 39.6557 253.081 39.9674 253.085C40.2684 253.089 40.5185 252.855 40.5222 252.554Z" fill="#258FDC"/>
<path d="M49.9352 265.505C49.9388 265.204 49.7056 264.933 49.4153 264.929C49.082 264.925 48.8423 265.191 48.8387 265.492C48.8353 265.772 49.0687 266.032 49.4019 266.037C49.6922 266.04 49.9318 265.785 49.9352 265.505V265.505Z" fill="#258FDC"/>
<path d="M58.4278 278.994C58.4304 278.779 58.2287 278.561 57.9922 278.559C57.7235 278.555 57.5381 278.768 57.5355 278.983C57.5323 279.252 57.7124 279.48 57.9811 279.483C58.2176 279.486 58.4245 279.263 58.4278 278.994Z" fill="#258FDC"/>
<path d="M65.8598 293.061C65.8612 292.942 65.7759 292.877 65.6684 292.876C65.5501 292.874 65.4634 292.938 65.462 293.056C65.4608 293.153 65.5453 293.272 65.6636 293.273C65.7711 293.275 65.8586 293.157 65.8598 293.061Z" fill="#258FDC"/>
<path d="M72.8672 307.584C72.8703 307.326 72.6897 307.141 72.4316 307.138C72.1952 307.136 71.9887 307.316 71.9856 307.574C71.9829 307.8 72.1844 308.028 72.4209 308.031C72.6789 308.034 72.8644 307.81 72.8672 307.584Z" fill="#258FDC"/>
<path d="M79.0198 322.507C79.0246 322.109 78.6847 321.761 78.2869 321.756C77.8678 321.751 77.5411 322.092 77.5363 322.489C77.5312 322.908 77.8496 323.256 78.2688 323.261C78.6666 323.266 79.0148 322.926 79.0198 322.507Z" fill="#258FDC"/>
<path d="M83.4595 337.752C83.4617 337.57 83.3131 337.417 83.1411 337.415C82.9476 337.413 82.7952 337.562 82.793 337.744C82.7907 337.938 82.9396 338.079 83.1331 338.082C83.3051 338.084 83.4572 337.946 83.4595 337.752Z" fill="#258FDC"/>
<path d="M87.1645 353.28C87.1653 353.216 87.0911 353.129 87.0158 353.128C86.9513 353.127 86.875 353.212 86.8742 353.277C86.8728 353.395 86.9478 353.417 87.0123 353.418C87.0876 353.419 87.1631 353.398 87.1645 353.28Z" fill="#258FDC"/>
<path d="M90.0493 369.066C90.0505 368.969 89.9759 368.914 89.8683 368.913C89.7931 368.912 89.7172 368.965 89.716 369.062C89.7153 369.126 89.7894 369.213 89.8647 369.214C89.9722 369.215 90.0485 369.13 90.0493 369.066Z" fill="#258FDC"/>
<path d="M91.8254 384.946C91.8258 384.914 91.7835 384.859 91.7512 384.859C91.676 384.858 91.6323 384.911 91.6319 384.943C91.6311 385.008 91.6734 385.073 91.7486 385.074C91.7809 385.074 91.8246 385.01 91.8254 384.946Z" fill="#258FDC"/>
<path d="M92.6198 400.945C92.62 400.934 92.5887 400.902 92.5466 400.902C92.5466 400.902 92.5146 400.933 92.5144 400.944L92.5453 401.007C92.5875 401.008 92.6192 400.998 92.6198 400.945Z" fill="#258FDC"/>
<path d="M92.5795 416.963C92.5808 416.856 92.4744 416.758 92.3562 416.757C92.281 416.756 92.1831 416.851 92.1818 416.959C92.1804 417.077 92.2761 417.164 92.3513 417.165C92.4695 417.166 92.5781 417.082 92.5795 416.963Z" fill="#258FDC"/>
<path d="M91.245 432.937C91.2458 432.873 91.2036 432.851 91.1717 432.851C91.0974 432.85 91.0545 432.87 91.0538 432.934C91.053 432.998 91.0951 433.041 91.1694 433.042C91.2013 433.042 91.2443 433 91.245 432.937Z" fill="#258FDC"/>
<path d="M89.1533 448.79C89.1547 448.672 89.0593 448.553 88.9088 448.551C88.7906 448.549 88.6816 448.666 88.6802 448.785C88.6785 448.924 88.7846 449.044 88.9028 449.045C89.0534 449.047 89.1516 448.93 89.1533 448.79Z" fill="#258FDC"/>
<path d="M86.2222 464.495C86.2258 464.194 85.9819 463.922 85.6807 463.919C85.3906 463.915 85.1186 464.181 85.115 464.482C85.1115 464.772 85.3774 465.012 85.6675 465.015C85.9686 465.019 86.2187 464.785 86.2222 464.495Z" fill="#258FDC"/>
<path d="M82.2299 479.94C82.2352 479.5 81.874 479.14 81.4333 479.135C80.9817 479.13 80.6335 479.48 80.6282 479.921C80.623 480.351 80.9628 480.699 81.4143 480.705C81.8551 480.71 82.2247 480.37 82.2299 479.94Z" fill="#258FDC"/>
<path d="M77.2309 495.073C77.2378 494.492 76.7596 494.024 76.2113 494.017C75.6308 494.01 75.1737 494.467 75.1667 495.048C75.1599 495.618 75.6057 496.096 76.1862 496.103C76.7345 496.11 77.224 495.642 77.2309 495.073Z" fill="#258FDC"/>
<path d="M71.3866 509.84C71.3957 509.087 70.7798 508.456 70.0057 508.447C69.2533 508.438 68.6222 509.054 68.6132 509.806C68.6038 510.58 69.2198 511.211 69.9723 511.22C70.7464 511.23 71.3773 510.614 71.3866 509.84Z" fill="#258FDC"/>
<path d="M64.365 524.195C64.3748 523.378 63.7163 522.703 62.8993 522.693C62.0822 522.684 61.4077 523.342 61.3979 524.159C61.3879 524.987 62.0466 525.64 62.8637 525.65C63.6807 525.66 64.355 525.023 64.365 524.195Z" fill="#258FDC"/>
<path d="M56.0802 538.061C56.0886 537.362 55.5469 536.807 54.8804 536.799C54.1817 536.791 53.6268 537.333 53.6183 538.031C53.61 538.719 54.152 539.253 54.8508 539.261C55.5173 539.269 56.0719 538.749 56.0802 538.061Z" fill="#258FDC"/>
<path d="M46.9958 551.381C47.0028 550.8 46.5355 550.322 45.9765 550.315C45.396 550.308 44.928 550.775 44.921 551.356C44.9144 551.904 45.3708 552.393 45.9514 552.4C46.5104 552.407 46.9892 551.929 46.9958 551.381Z" fill="#258FDC"/>
<path d="M38.9936 564.111C39.0121 562.574 37.7799 561.322 36.2534 561.304C34.7269 561.286 33.4758 562.507 33.4572 564.044C33.4388 565.571 34.6603 566.811 36.1868 566.83C37.7133 566.848 38.9752 565.637 38.9936 564.111Z" fill="#258FDC"/>
<path d="M28.892 576.182C28.9134 574.408 27.5118 572.95 25.7273 572.929C23.9534 572.907 22.4956 574.331 22.4742 576.104C22.4528 577.878 23.876 579.336 25.6498 579.357C27.4343 579.379 28.8706 577.955 28.892 576.182Z" fill="#258FDC"/>
<path d="M17.6271 587.54C17.6482 585.787 16.2251 584.33 14.4512 584.308C12.6775 584.287 11.1982 585.71 11.177 587.462C11.1555 589.246 12.6002 590.705 14.3739 590.726C16.1477 590.747 17.6056 589.324 17.6271 587.54Z" fill="#258FDC"/>
<path d="M5.69353 598.169C5.71529 596.363 4.26007 594.883 2.46482 594.862C0.658847 594.84 -0.810074 596.285 -0.831837 598.091C-0.853599 599.897 0.580088 601.376 2.38606 601.398C4.18131 601.42 5.67177 599.975 5.69353 598.169Z" fill="#258FDC"/>
<path d="M10.7954 196.19C10.807 195.234 10.053 194.45 9.08544 194.439C8.12866 194.427 7.33465 195.192 7.32312 196.149C7.31146 197.116 8.08669 197.91 9.04347 197.922C10.0111 197.934 10.7838 197.158 10.7954 196.19Z" fill="#258FDC"/>
<path d="M22.7343 206.527C22.744 205.72 22.1283 205.068 21.3328 205.058C20.5265 205.049 19.906 205.686 19.8962 206.493C19.8869 207.267 20.4921 207.908 21.2983 207.918C22.0938 207.927 22.725 207.301 22.7343 206.527Z" fill="#258FDC"/>
<path d="M34.009 217.554C34.0166 216.92 33.5171 216.441 32.9258 216.434C32.3346 216.427 31.8452 216.894 31.8375 217.528C31.8304 218.119 32.3084 218.598 32.8997 218.605C33.491 218.612 34.0019 218.145 34.009 217.554V217.554Z" fill="#258FDC"/>
<path d="M44.8351 229.243C44.8413 228.727 44.4059 228.27 43.8684 228.263C43.3094 228.257 42.8525 228.703 42.8463 229.219C42.8397 229.767 43.2855 230.235 43.8446 230.241C44.382 230.248 44.8285 229.791 44.8351 229.243Z" fill="#258FDC"/>
<path d="M54.75 241.587C54.7544 241.222 54.4468 240.874 54.0706 240.869C53.6729 240.865 53.3784 241.205 53.374 241.571C53.3696 241.936 53.6559 242.273 54.0536 242.278C54.4299 242.282 54.7456 241.953 54.75 241.587Z" fill="#258FDC"/>
<path d="M63.9588 254.514C63.962 254.245 63.7706 254.071 63.5127 254.068C63.2654 254.065 63.0698 254.234 63.0665 254.503C63.0633 254.772 63.2547 254.946 63.5021 254.949C63.76 254.952 63.9556 254.783 63.9588 254.514Z" fill="#258FDC"/>
<path d="M72.3764 267.991C72.3778 267.873 72.2819 267.796 72.1638 267.795C72.067 267.794 71.9693 267.868 71.9679 267.986C71.9666 268.093 72.0625 268.17 72.1592 268.171C72.2774 268.172 72.3751 268.098 72.3764 267.991Z" fill="#258FDC"/>
<path d="M80.0975 281.976C80.0985 281.891 80.0562 281.869 80.0243 281.869C79.95 281.868 79.9073 281.889 79.9062 281.974C79.9057 282.016 79.9478 282.049 80.0222 282.05C80.054 282.05 80.097 282.019 80.0975 281.976Z" fill="#258FDC"/>
<path d="M93.1546 311.163C93.1549 311.131 93.1549 311.131 93.1123 311.13C93.0805 311.13 93.0805 311.13 93.0801 311.162C93.0797 311.194 93.0797 311.194 93.1116 311.194C93.1542 311.194 93.1542 311.194 93.1546 311.163Z" fill="#258FDC"/>
<path d="M98.4564 326.311C98.4569 326.268 98.3826 326.192 98.3396 326.191C98.3074 326.191 98.2311 326.265 98.2306 326.308C98.2302 326.34 98.3046 326.417 98.3369 326.417C98.3799 326.418 98.456 326.343 98.4564 326.311Z" fill="#258FDC"/>
<path d="M102.709 341.737C102.709 341.706 102.667 341.705 102.646 341.705C102.646 341.705 102.593 341.704 102.593 341.736C102.592 341.757 102.645 341.757 102.645 341.757C102.666 341.758 102.708 341.758 102.709 341.737Z" fill="#258FDC"/>
<path d="M103.364 468.659C103.366 468.476 103.218 468.324 103.046 468.322C102.82 468.319 102.668 468.468 102.665 468.65C102.663 468.855 102.812 469.007 103.037 469.01C103.209 469.012 103.362 468.863 103.364 468.659Z" fill="#258FDC"/>
<path d="M99.2968 484.103C99.2997 483.856 99.0767 483.627 98.8079 483.624C98.5176 483.62 98.2892 483.843 98.2862 484.091C98.2828 484.37 98.5059 484.599 98.7961 484.602C99.0649 484.605 99.2934 484.382 99.2968 484.103Z" fill="#258FDC"/>
<path d="M94.372 499.289C94.3767 498.902 94.0361 498.608 93.6706 498.604C93.2944 498.599 92.9683 498.885 92.9637 499.272C92.959 499.659 93.278 499.954 93.6542 499.958C94.0197 499.963 94.3673 499.676 94.372 499.289Z" fill="#258FDC"/>
<path d="M88.785 514.124C88.7924 513.511 88.2826 513 87.6483 512.992C87.0248 512.985 86.492 513.483 86.4846 514.096C86.4768 514.741 86.9974 515.263 87.6209 515.271C88.2551 515.279 88.7773 514.769 88.785 514.124Z" fill="#258FDC"/>
<path d="M82.0199 528.6C82.0287 527.869 81.4659 527.282 80.7242 527.273C80.0362 527.265 79.4595 527.839 79.4506 528.57C79.4424 529.258 80.0051 529.845 80.6931 529.853C81.4348 529.862 82.0116 529.289 82.0199 528.6Z" fill="#258FDC"/>
<path d="M74.3036 542.593C74.3125 541.851 73.7285 541.252 72.9866 541.244C72.2449 541.235 71.6465 541.819 71.6376 542.56C71.6286 543.302 72.2128 543.901 72.9545 543.91C73.6963 543.919 74.2946 543.334 74.3036 542.593Z" fill="#258FDC"/>
<path d="M65.7757 556.123C65.7848 555.37 65.1797 554.718 64.3951 554.708C63.6425 554.699 63.0005 555.336 62.9914 556.089C62.9824 556.842 63.609 557.483 64.3615 557.493C65.1462 557.502 65.7667 556.875 65.7757 556.123Z" fill="#258FDC"/>
<path d="M57.0393 569.113C57.0527 568.006 56.1608 567.07 55.0319 567.057C53.9247 567.043 52.9891 567.957 52.9757 569.064C52.9621 570.193 53.8758 571.107 54.983 571.12C56.1119 571.134 57.0257 570.242 57.0393 569.113Z" fill="#258FDC"/>
<path d="M47.9442 581.529C47.9647 579.831 46.6159 578.438 44.9067 578.418C43.2189 578.397 41.8155 579.757 41.795 581.455C41.7746 583.154 43.1449 584.536 44.8327 584.556C46.5419 584.577 47.9237 583.228 47.9442 581.529Z" fill="#258FDC"/>
<path d="M37.384 593.294C37.4063 591.445 35.9088 589.91 34.0597 589.888C32.1893 589.866 30.6767 591.363 30.6544 593.212C30.6318 595.094 32.108 596.606 33.9785 596.629C35.8276 596.651 37.3614 595.175 37.384 593.294Z" fill="#258FDC"/>
<path d="M25.9393 604.402C25.9623 602.488 24.4329 600.922 22.4978 600.898C20.5951 600.875 19.0177 602.405 18.9946 604.318C18.9714 606.242 20.5115 607.809 22.4143 607.832C24.3494 607.855 25.9161 606.326 25.9393 604.402Z" fill="#258FDC"/>
<path d="M13.5892 614.79C13.6112 612.962 12.1563 611.472 10.3179 611.45C8.4904 611.428 6.98911 612.882 6.96709 614.71C6.94494 616.548 8.4106 618.05 10.2381 618.072C12.0765 618.094 13.5671 616.628 13.5892 614.79Z" fill="#258FDC"/>
<path d="M0.753706 624.441C0.775469 622.635 -0.658336 621.166 -2.4643 621.144C-4.25956 621.122 -5.74988 622.556 -5.77165 624.362C-5.79341 626.168 -4.33832 627.659 -2.54306 627.68C-0.737096 627.702 0.731944 626.247 0.753706 624.441Z" fill="#258FDC"/>
<path d="M0.847338 166.073C0.869099 164.267 -0.575546 162.809 -2.3708 162.787C-4.17689 162.765 -5.65627 164.188 -5.67803 165.994C-5.6994 167.768 -4.25539 169.28 -2.4493 169.302C-0.654047 169.323 0.825963 167.847 0.847338 166.073Z" fill="#258FDC"/>
<path d="M13.318 175.115C13.3348 173.717 12.2301 172.597 10.8326 172.58C9.44584 172.563 8.30375 173.657 8.2869 175.054C8.27006 176.452 9.38534 177.584 10.7721 177.6C12.1696 177.617 13.3012 176.512 13.318 175.115Z" fill="#258FDC"/>
<path d="M26.1559 184.892C26.1736 183.42 24.9731 182.233 23.5218 182.216C22.0382 182.198 20.8416 183.355 20.8238 184.828C20.8057 186.333 21.9742 187.508 23.4578 187.526C24.9091 187.544 26.1378 186.397 26.1559 184.892Z" fill="#258FDC"/>
<path d="M38.2652 195.382C38.283 193.898 37.0933 192.701 35.6312 192.683C34.1477 192.665 32.9294 193.834 32.9115 195.317C32.8936 196.801 34.0835 197.998 35.5669 198.015C37.029 198.033 38.2473 196.865 38.2652 195.382Z" fill="#258FDC"/>
<path d="M48.9795 206.51C48.9918 205.489 48.153 204.619 47.121 204.606C46.0781 204.594 45.24 205.444 45.2277 206.465C45.2153 207.497 46.0327 208.367 47.0755 208.379C48.1075 208.392 48.967 207.542 48.9795 206.51Z" fill="#258FDC"/>
<path d="M58.8048 218.262C58.8102 217.81 58.4276 217.451 57.9545 217.445C57.4923 217.439 57.1224 217.79 57.117 218.241C57.1112 218.725 57.4724 219.095 57.9345 219.1C58.4076 219.106 58.7989 218.745 58.8048 218.262V218.262Z" fill="#258FDC"/>
<path d="M68.3429 230.633C68.3441 230.537 68.2487 230.417 68.1413 230.416C68.0552 230.415 67.9463 230.532 67.9451 230.629C67.9438 230.736 68.0503 230.823 68.1363 230.824C68.2438 230.826 68.3416 230.741 68.3429 230.633Z" fill="#258FDC"/>
<path d="M77.7115 243.521C77.7119 243.489 77.6697 243.457 77.6167 243.456C77.5529 243.455 77.5207 243.487 77.5203 243.519C77.5194 243.593 77.5507 243.636 77.6145 243.637C77.6676 243.637 77.7106 243.595 77.7115 243.521Z" fill="#258FDC"/>
<path d="M86.4756 256.979C86.4767 256.893 86.4018 256.86 86.3589 256.859C86.3266 256.859 86.2509 256.89 86.2499 256.976C86.2495 257.009 86.3245 257.031 86.3568 257.031C86.3998 257.032 86.4753 257.011 86.4756 256.979Z" fill="#258FDC"/>
<path d="M94.4133 270.838C94.4137 270.806 94.3821 270.785 94.3396 270.784C94.2652 270.783 94.2331 270.804 94.2327 270.836C94.2318 270.91 94.2631 270.953 94.3376 270.954C94.3801 270.955 94.4124 270.913 94.4133 270.838Z" fill="#258FDC"/>
<path d="M120.495 472.843C120.496 472.768 120.475 472.703 120.357 472.702C120.282 472.701 120.206 472.764 120.205 472.84C120.204 472.915 120.278 472.991 120.354 472.992C120.472 472.993 120.494 472.918 120.495 472.843Z" fill="#258FDC"/>
<path d="M116.384 488.297C116.385 488.201 116.29 488.114 116.172 488.112C116.064 488.111 115.988 488.196 115.987 488.293C115.985 488.411 116.059 488.498 116.167 488.499C116.285 488.501 116.383 488.416 116.384 488.297Z" fill="#258FDC"/>
<path d="M111.46 503.495C111.462 503.323 111.324 503.171 111.141 503.169C110.948 503.166 110.795 503.315 110.793 503.487C110.791 503.691 110.939 503.844 111.133 503.846C111.316 503.848 111.457 503.699 111.46 503.495Z" fill="#258FDC"/>
<path d="M105.732 518.392C105.735 518.145 105.512 517.917 105.254 517.914C104.964 517.91 104.736 518.133 104.733 518.38C104.729 518.66 104.952 518.888 105.243 518.892C105.501 518.895 105.729 518.672 105.732 518.392Z" fill="#258FDC"/>
<path d="M99.3747 532.949C99.3804 532.476 99.0194 532.095 98.5249 532.09C98.0842 532.084 97.6711 532.456 97.6654 532.929C97.6598 533.391 98.0639 533.772 98.5046 533.777C98.9991 533.783 99.3691 533.411 99.3747 532.949Z" fill="#258FDC"/>
<path d="M92.1189 547.086C92.1265 546.452 91.6596 545.941 91.0254 545.933C90.4019 545.926 89.8797 546.425 89.8721 547.059C89.8646 547.683 90.3743 548.216 90.9978 548.223C91.632 548.231 92.1114 547.71 92.1189 547.086Z" fill="#258FDC"/>
<path d="M84.0728 560.784C84.0819 560.031 83.4982 559.39 82.7135 559.381C81.9394 559.371 81.3405 559.998 81.3315 560.751C81.3223 561.514 81.9059 562.155 82.68 562.165C83.4647 562.174 84.0636 561.547 84.0728 560.784Z" fill="#258FDC"/>
<path d="M74.9788 573.995C74.9878 573.254 74.3929 572.655 73.6512 572.646C72.9094 572.637 72.311 573.221 72.302 573.963C72.2931 574.705 72.8772 575.303 73.6191 575.312C74.3608 575.321 74.9699 574.737 74.9788 573.995Z" fill="#258FDC"/>
<path d="M65.6872 586.667C65.6991 585.678 64.8921 584.841 63.8709 584.828C62.8603 584.816 62.0441 585.634 62.0322 586.623C62.0197 587.655 62.8162 588.471 63.8268 588.483C64.8481 588.496 65.6748 587.699 65.6872 586.667Z" fill="#258FDC"/>
<path d="M54.5207 598.79C54.5283 598.156 54.0076 597.644 53.3733 597.636C52.7499 597.629 52.2384 598.128 52.2308 598.762C52.2233 599.386 52.7224 599.908 53.3458 599.915C53.9802 599.923 54.5132 599.413 54.5207 598.79Z" fill="#258FDC"/>
<path d="M43.1786 610.297C43.1849 609.771 42.76 609.346 42.244 609.34C41.7173 609.334 41.2822 609.748 41.2759 610.274C41.2696 610.79 41.6947 611.204 42.2215 611.21C42.7374 611.217 43.1724 610.813 43.1786 610.297Z" fill="#258FDC"/>
<path d="M33.6396 621.181C33.6607 619.429 32.2372 618.003 30.5064 617.983C28.7434 617.961 27.3182 619.353 27.2971 621.105C27.2761 622.846 28.6671 624.293 30.4301 624.314C32.1609 624.335 33.6186 622.923 33.6396 621.181Z" fill="#258FDC"/>
<path d="M21.2598 631.375C21.281 629.612 19.879 628.187 18.1482 628.166C16.3852 628.145 14.9599 629.536 14.9387 631.299C14.9178 633.03 16.3088 634.487 18.0718 634.509C19.8025 634.529 21.2389 633.106 21.2598 631.375Z" fill="#258FDC"/>
<path d="M8.39422 640.843C8.41559 639.069 7.00331 637.601 5.22948 637.58C3.45577 637.558 1.98698 638.992 1.96561 640.766C1.94411 642.55 3.37817 643.998 5.15189 644.019C6.92572 644.04 8.37271 642.628 8.39422 640.843Z" fill="#258FDC"/>
<path d="M3.2311 145.813C3.26102 143.33 1.28562 141.306 -1.17625 141.276C-3.64884 141.247 -5.64016 143.223 -5.67008 145.706C-5.69936 148.135 -3.75622 150.159 -1.28364 150.188C1.17823 150.218 3.20182 148.243 3.2311 145.813Z" fill="#258FDC"/>
<path d="M16.3418 154.379C16.3686 152.154 14.5631 150.304 12.3163 150.277C10.0802 150.25 8.25224 152.056 8.22543 154.281C8.19835 156.528 9.9823 158.377 12.2184 158.404C14.4652 158.431 16.3147 156.626 16.3418 154.379Z" fill="#258FDC"/>
<path d="M28.6803 163.677C28.7029 161.807 27.2159 160.284 25.367 160.261C23.4964 160.239 21.984 161.726 21.9614 163.596C21.9392 165.445 23.4152 166.979 25.2858 167.002C27.1347 167.024 28.658 165.526 28.6803 163.677Z" fill="#258FDC"/>
<path d="M40.0862 173.631C40.1011 172.395 39.1025 171.394 37.8878 171.379C36.6407 171.364 35.6506 172.341 35.6357 173.578C35.6209 174.803 36.5872 175.804 37.8343 175.819C39.049 175.834 40.0715 174.857 40.0862 173.631Z" fill="#258FDC"/>
<path d="M51.581 184.242C51.5927 183.274 50.8172 182.491 49.8604 182.479C48.9252 182.468 48.131 183.233 48.1194 184.2C48.1078 185.157 48.8832 185.951 49.8184 185.962C50.7752 185.974 51.5695 185.199 51.581 184.242Z" fill="#258FDC"/>
<path d="M62.4982 195.501C62.5069 194.781 61.965 194.237 61.277 194.229C60.5891 194.22 60.0343 194.751 60.0256 195.472C60.0176 196.138 60.5593 196.693 61.2472 196.701C61.9352 196.71 62.4902 196.168 62.4982 195.501Z" fill="#258FDC"/>
<path d="M73.7529 207.292C73.7639 206.378 73.0205 205.617 72.0852 205.605C71.1714 205.594 70.3884 206.337 70.3773 207.251C70.3657 208.219 71.1307 208.97 72.0445 208.981C72.9798 208.992 73.7413 208.259 73.7529 207.292Z" fill="#258FDC"/>
<path d="M82.657 219.656C82.6594 219.452 82.4905 219.203 82.2217 219.199C81.9959 219.197 81.7672 219.441 81.7647 219.645C81.7615 219.914 81.9849 220.11 82.2107 220.113C82.4794 220.116 82.6537 219.925 82.657 219.656Z" fill="#258FDC"/>
<path d="M128.674 507.704C128.675 507.672 128.643 507.618 128.569 507.617C128.526 507.617 128.494 507.669 128.493 507.701C128.493 507.765 128.524 507.819 128.566 507.819C128.641 507.82 128.673 507.767 128.674 507.704Z" fill="#258FDC"/>
<path d="M123.206 522.667C123.209 522.441 123.017 522.278 122.835 522.276C122.619 522.273 122.424 522.432 122.421 522.658C122.419 522.873 122.61 523.036 122.825 523.039C123.008 523.041 123.203 522.882 123.206 522.667Z" fill="#258FDC"/>
<path d="M116.912 537.267C116.917 536.913 116.619 536.64 116.296 536.636C115.92 536.632 115.627 536.897 115.622 537.252C115.618 537.628 115.905 537.911 116.281 537.916C116.604 537.92 116.908 537.644 116.912 537.267Z" fill="#258FDC"/>
<path d="M110.042 551.549C110.049 550.936 109.561 550.447 108.97 550.44C108.378 550.432 107.856 550.91 107.849 551.523C107.842 552.114 108.352 552.625 108.943 552.633C109.534 552.64 110.035 552.14 110.042 551.549Z" fill="#258FDC"/>
<path d="M102.543 565.382C102.553 564.49 101.821 563.739 100.928 563.728C100.036 563.718 99.2854 564.45 99.2746 565.343C99.2638 566.246 99.9965 566.996 100.889 567.007C101.781 567.018 102.532 566.285 102.543 565.382Z" fill="#258FDC"/>
<path d="M94.113 578.795C94.1261 577.71 93.2446 576.807 92.1373 576.793C91.0623 576.78 90.17 577.662 90.1569 578.748C90.1437 579.844 91.0146 580.737 92.0896 580.749C93.1969 580.763 94.0998 579.892 94.113 578.795Z" fill="#258FDC"/>
<path d="M84.4743 591.7C84.4862 590.711 83.6791 589.884 82.6901 589.872C81.6795 589.86 80.8204 590.667 80.8085 591.656C80.7962 592.677 81.6356 593.504 82.6461 593.516C83.6352 593.528 84.462 592.721 84.4743 591.7Z" fill="#258FDC"/>
<path d="M74.218 604.113C74.2292 603.177 73.4642 602.426 72.5504 602.415C71.6045 602.404 70.8537 603.137 70.8424 604.072C70.8312 605.007 71.5639 605.769 72.5099 605.78C73.4237 605.791 74.2067 605.048 74.218 604.113Z" fill="#258FDC"/>
<path d="M62.6357 615.94C62.6416 615.456 62.2486 615.054 61.7434 615.047C61.2703 615.042 60.8463 615.434 60.8405 615.918C60.8344 616.423 61.2488 616.826 61.7219 616.832C62.2271 616.838 62.6296 616.445 62.6357 615.94Z" fill="#258FDC"/>
<path d="M50.942 627.207C50.946 626.873 50.7018 626.612 50.3579 626.608C50.0353 626.604 49.7635 626.859 49.7594 627.192C49.7554 627.526 50.0211 627.787 50.3436 627.791C50.6876 627.795 50.938 627.54 50.942 627.207Z" fill="#258FDC"/>
<path d="M39.0832 637.869C39.088 637.471 38.7799 637.156 38.4037 637.151C38.006 637.147 37.6904 637.455 37.6856 637.852C37.6812 638.218 37.9893 638.533 38.387 638.538C38.7632 638.543 39.0788 638.235 39.0832 637.869Z" fill="#258FDC"/>
<path d="M28.1569 647.887C28.1721 646.629 27.1631 645.596 25.9053 645.581C24.6475 645.565 23.6248 646.574 23.6096 647.832C23.5945 649.09 24.5927 650.113 25.8505 650.128C27.1083 650.143 28.1417 649.145 28.1569 647.887Z" fill="#258FDC"/>
<path d="M15.5294 657.218C15.5473 655.735 14.3576 654.538 12.8956 654.52C11.412 654.502 10.1938 655.67 10.1759 657.154C10.158 658.637 11.3478 659.834 12.8313 659.852C14.2933 659.87 15.5116 658.702 15.5294 657.218Z" fill="#258FDC"/>
<path d="M2.23324 665.831C2.25215 664.262 0.977931 662.935 -0.60238 662.916C-2.18257 662.897 -3.47769 664.193 -3.4966 665.762C-3.51577 667.353 -2.25188 668.648 -0.671683 668.667C0.908628 668.686 2.21407 667.422 2.23324 665.831Z" fill="#258FDC"/>
<path d="M4.28959 125.785C4.32003 123.259 2.3231 121.235 -0.160199 121.205C-2.63278 121.175 -4.68862 123.15 -4.71906 125.676C-4.74898 128.16 -2.74121 130.173 -0.268622 130.203C2.21467 130.233 4.25967 128.268 4.28959 125.785Z" fill="#258FDC"/>
<path d="M17.1363 133.939C17.1601 131.961 15.5775 130.361 13.5887 130.337C11.6429 130.314 10.0221 131.875 9.99825 133.853C9.97468 135.809 11.5572 137.42 13.5031 137.443C15.4918 137.467 17.1127 135.895 17.1363 133.939Z" fill="#258FDC"/>
<path d="M29.341 142.752C29.3571 141.419 28.2736 140.32 26.9406 140.304C25.6076 140.288 24.4979 141.36 24.4819 142.693C24.4658 144.026 25.549 145.157 26.882 145.173C28.215 145.19 29.3249 144.085 29.341 142.752Z" fill="#258FDC"/>
<path d="M41.1822 152.27C41.1917 151.485 40.5755 150.865 39.8231 150.856C39.049 150.846 38.4289 151.452 38.4195 152.236C38.4107 152.967 39.0157 153.609 39.7898 153.618C40.5422 153.627 41.1734 153.001 41.1822 152.27Z" fill="#258FDC"/>
<path d="M75.716 184.468C75.7183 184.275 75.5907 184.155 75.4295 184.153C75.2468 184.151 75.1271 184.268 75.1247 184.461C75.1229 184.612 75.2394 184.764 75.4221 184.766C75.5834 184.768 75.7142 184.619 75.716 184.468Z" fill="#258FDC"/>
<path d="M87.0128 196.335C87.0187 195.851 86.6574 195.492 86.1845 195.486C85.7329 195.48 85.3202 195.83 85.3143 196.314C85.3089 196.766 85.713 197.136 86.1645 197.141C86.6375 197.147 87.0074 196.786 87.0128 196.335Z" fill="#258FDC"/>
<path d="M97.9483 208.744C97.9596 207.809 97.2264 207.091 96.3342 207.08C95.4526 207.069 94.7023 207.77 94.6911 208.705C94.6806 209.576 95.4134 210.327 96.2949 210.337C97.1872 210.348 97.9378 209.615 97.9483 208.744Z" fill="#258FDC"/>
<path d="M105.898 221.614C105.899 221.562 105.868 221.53 105.825 221.529C105.794 221.529 105.793 221.561 105.793 221.613C105.793 221.613 105.792 221.655 105.824 221.656C105.866 221.656 105.898 221.614 105.898 221.614Z" fill="#258FDC"/>
<path d="M140.409 526.897C140.41 526.886 140.368 526.854 140.368 526.854C140.336 526.854 140.294 526.885 140.294 526.895C140.293 526.948 140.335 526.959 140.367 526.96C140.367 526.96 140.409 526.95 140.409 526.897Z" fill="#258FDC"/>
<path d="M134.117 541.593C134.118 541.517 134.043 541.452 133.968 541.451C133.893 541.45 133.828 541.514 133.827 541.589C133.826 541.686 133.889 541.741 133.965 541.741C134.04 541.742 134.116 541.689 134.117 541.593Z" fill="#258FDC"/>
<path d="M127.643 555.933C127.648 555.524 127.287 555.154 126.847 555.149C126.395 555.144 126.068 555.505 126.063 555.914C126.058 556.354 126.376 556.724 126.828 556.729C127.268 556.735 127.638 556.373 127.643 555.933Z" fill="#258FDC"/>
<path d="M120.261 569.918C120.269 569.24 119.716 568.686 119.018 568.677C118.351 568.669 117.785 569.211 117.777 569.888C117.769 570.587 118.321 571.142 118.988 571.15C119.687 571.158 120.252 570.617 120.261 569.918Z" fill="#258FDC"/>
<path d="M112.281 583.498C112.292 582.52 111.485 581.714 110.517 581.703C109.528 581.691 108.734 582.477 108.722 583.455C108.71 584.433 109.485 585.249 110.474 585.261C111.442 585.273 112.269 584.476 112.281 583.498Z" fill="#258FDC"/>
<path d="M104.241 596.647C104.261 595.024 102.965 593.696 101.342 593.677C99.7507 593.658 98.4018 594.953 98.3823 596.576C98.363 598.178 99.6804 599.495 101.271 599.514C102.895 599.534 104.222 598.249 104.241 596.647Z" fill="#258FDC"/>
<path d="M93.8637 609.284C93.8797 607.962 92.8497 606.896 91.5167 606.88C90.2158 606.864 89.1389 607.905 89.1229 609.227C89.1071 610.539 90.1587 611.605 91.4595 611.621C92.7925 611.637 93.8479 610.596 93.8637 609.284Z" fill="#258FDC"/>
<path d="M82.7829 621.429C82.7945 620.462 82.03 619.668 81.0733 619.656C80.1058 619.645 79.3115 620.42 79.2998 621.388C79.2886 622.323 80.0639 623.117 81.0314 623.129C81.9882 623.14 82.7716 622.365 82.7829 621.429Z" fill="#258FDC"/>
<path d="M71.4937 633.013C71.5036 632.196 70.845 631.521 70.0388 631.512C69.2217 631.502 68.5472 632.16 68.5374 632.977C68.5274 633.805 69.1858 634.48 70.0029 634.489C70.8091 634.499 71.4838 633.841 71.4937 633.013Z" fill="#258FDC"/>
<path d="M59.5446 644.051C59.5523 643.416 59.0528 642.927 58.4293 642.919C57.795 642.912 57.2732 643.389 57.2656 644.023C57.2581 644.647 57.7677 645.18 58.402 645.187C59.0254 645.195 59.5371 644.674 59.5446 644.051Z" fill="#258FDC"/>
<path d="M47.355 654.516C47.3623 653.914 46.8953 653.414 46.2826 653.406C45.6913 653.399 45.1908 653.888 45.1836 654.49C45.1764 655.081 45.6649 655.592 46.2561 655.599C46.8688 655.607 47.3479 655.107 47.355 654.516Z" fill="#258FDC"/>
<path d="M35.0762 664.356C35.0858 663.561 34.4379 662.897 33.6532 662.888C32.8577 662.878 32.2047 663.526 32.1951 664.322C32.1856 665.117 32.8231 665.748 33.6186 665.758C34.4033 665.767 35.0666 665.152 35.0762 664.356Z" fill="#258FDC"/>
<path d="M22.3856 673.557C22.3982 672.515 21.5807 671.655 20.538 671.643C19.506 671.63 18.6464 672.469 18.6339 673.512C18.6214 674.544 19.4608 675.382 20.4928 675.395C21.5355 675.407 22.3732 674.589 22.3856 673.557Z" fill="#258FDC"/>
<path d="M8.75752 682.07C8.76931 681.091 7.96183 680.286 6.96209 680.274C5.9946 680.262 5.17867 681.048 5.16688 682.026C5.15496 683.015 5.95185 683.81 6.91934 683.822C7.91909 683.834 8.7456 683.059 8.75752 682.07Z" fill="#258FDC"/>
<path d="M4.85136 105.933C4.87895 103.643 3.03088 101.76 0.741105 101.733C-1.5595 101.705 -3.43095 103.543 -3.45854 105.833C-3.48626 108.133 -1.6595 110.004 0.6411 110.032C2.93087 110.06 4.82364 108.233 4.85136 105.933Z" fill="#258FDC"/>
<path d="M18.5089 113.731C18.5344 111.614 16.835 109.884 14.7279 109.858C12.6208 109.833 10.9017 111.522 10.8762 113.639C10.8508 115.746 12.5287 117.476 14.6358 117.501C16.7429 117.527 18.4835 115.838 18.5089 113.731Z" fill="#258FDC"/>
<path d="M29.8902 122.158C29.9008 121.277 29.1784 120.558 28.3076 120.548C27.4476 120.537 26.7296 121.238 26.719 122.12C26.7086 122.98 27.4097 123.687 28.2697 123.698C29.1404 123.708 29.8798 123.018 29.8902 122.158Z" fill="#258FDC"/>
<path d="M43.425 131.213C43.4374 130.181 42.5774 129.278 41.5239 129.265C40.4489 129.252 39.5673 130.134 39.5549 131.166C39.5421 132.23 40.4019 133.155 41.4769 133.168C42.5304 133.18 43.4122 132.277 43.425 131.213Z" fill="#258FDC"/>
<path d="M54.2849 140.902C54.2853 140.87 54.2747 140.87 54.2428 140.87C54.2109 140.869 54.2002 140.869 54.1998 140.901C54.1998 140.901 54.2102 140.933 54.242 140.933C54.2739 140.934 54.2845 140.934 54.2849 140.902Z" fill="#258FDC"/>
<path d="M144.976 560.335C144.978 560.174 144.83 560.021 144.679 560.019C144.539 560.018 144.387 560.166 144.385 560.328C144.383 560.478 144.532 560.63 144.672 560.632C144.822 560.634 144.974 560.485 144.976 560.335Z" fill="#258FDC"/>
<path d="M138.312 574.425C138.321 573.727 137.78 573.129 137.07 573.12C136.328 573.111 135.773 573.696 135.764 574.395C135.756 575.104 136.298 575.67 137.039 575.679C137.749 575.687 138.304 575.135 138.312 574.425Z" fill="#258FDC"/>
<path d="M129.997 588.141C130.006 587.442 129.464 586.888 128.797 586.88C128.088 586.871 127.533 587.413 127.525 588.111C127.517 588.778 128.058 589.333 128.768 589.341C129.434 589.349 129.989 588.808 129.997 588.141Z" fill="#258FDC"/>
<path d="M121.515 601.447C121.527 600.501 120.794 599.75 119.858 599.739C118.945 599.727 118.194 600.46 118.182 601.406C118.171 602.331 118.904 603.082 119.818 603.093C120.753 603.104 121.504 602.371 121.515 601.447Z" fill="#258FDC"/>
<path d="M112.543 614.327C112.558 613.079 111.56 612.068 110.345 612.053C109.087 612.038 108.119 613.026 108.104 614.273C108.089 615.488 109.034 616.499 110.291 616.514C111.506 616.529 112.529 615.541 112.543 614.327Z" fill="#258FDC"/>
<path d="M102.094 626.716C102.107 625.63 101.257 624.781 100.193 624.768C99.1178 624.755 98.2584 625.584 98.2454 626.669C98.2327 627.723 99.0715 628.604 100.146 628.617C101.211 628.63 102.081 627.769 102.094 626.716Z" fill="#258FDC"/>
<path d="M91.2094 638.615C91.2211 637.648 90.4455 636.875 89.4887 636.864C88.5212 636.852 87.738 637.606 87.7264 638.573C87.715 639.519 88.4795 640.314 89.447 640.325C90.4037 640.337 91.198 639.561 91.2094 638.615Z" fill="#258FDC"/>
<path d="M80.1054 650.008C80.1185 648.922 79.2686 648.073 78.2043 648.06C77.1722 648.048 76.27 648.876 76.2569 649.961C76.2441 651.026 77.1259 651.896 78.158 651.909C79.2222 651.922 80.0926 651.072 80.1054 650.008Z" fill="#258FDC"/>
<path d="M68.0834 660.84C68.0944 659.927 67.3619 659.144 66.416 659.132C65.4915 659.121 64.7296 659.886 64.7186 660.8C64.7072 661.746 65.4508 662.497 66.3753 662.508C67.3213 662.519 68.072 661.786 68.0834 660.84Z" fill="#258FDC"/>
<path d="M55.7455 671.121C55.7561 670.239 55.0232 669.489 54.1418 669.478C53.2388 669.467 52.4988 670.2 52.4881 671.082C52.4773 671.985 53.1996 672.725 54.1025 672.735C54.984 672.746 55.7346 672.024 55.7455 671.121Z" fill="#258FDC"/>
<path d="M43.2429 680.808C43.2553 679.776 42.4271 678.917 41.3842 678.904C40.3522 678.892 39.4927 679.731 39.4803 680.763C39.4677 681.806 40.3069 682.654 41.3389 682.667C42.3817 682.679 43.2303 681.851 43.2429 680.808Z" fill="#258FDC"/>
<path d="M29.8874 689.883C29.8991 688.915 29.145 688.143 28.1775 688.131C27.2315 688.12 26.4483 688.874 26.4366 689.841C26.4252 690.787 27.1897 691.582 28.1358 691.593C29.1033 691.605 29.876 690.829 29.8874 689.883Z" fill="#258FDC"/>
<path d="M16.2814 698.31C16.2927 697.374 15.5173 696.58 14.5821 696.569C13.6146 696.557 12.8203 697.332 12.8091 698.268C12.7974 699.235 13.5728 700.03 14.5403 700.041C15.4755 700.052 16.2697 699.277 16.2814 698.31Z" fill="#258FDC"/>
<path d="M3.27462 706.12C3.29263 704.626 2.08188 703.385 0.587618 703.367C-0.906643 703.349 -2.15777 704.56 -2.17578 706.054C-2.19391 707.559 -0.97232 708.8 0.521942 708.818C2.0162 708.836 3.25649 707.625 3.27462 706.12Z" fill="#258FDC"/>
<path d="M6.45326 86.3197C6.48629 83.5784 4.28759 81.337 1.5571 81.3041C-1.18423 81.271 -3.41463 83.4591 -3.44766 86.2004C-3.48069 88.9417 -1.30379 91.1935 1.43753 91.2265C4.16803 91.2595 6.42023 89.061 6.45326 86.3197Z" fill="#258FDC"/>
<path d="M21.1795 93.7542C21.216 90.7226 18.7728 88.2526 15.7628 88.2163C12.7204 88.1797 10.2186 90.5901 10.1821 93.6217C10.1454 96.664 12.5881 99.1664 15.6304 99.203C18.6404 99.2393 21.1428 96.7965 21.1795 93.7542Z" fill="#258FDC"/>
<path d="M30.3077 101.799C30.3131 101.347 29.9519 100.977 29.5327 100.972C29.092 100.967 28.7328 101.328 28.7273 101.78C28.722 102.221 29.0729 102.547 29.5136 102.553C29.9328 102.558 30.3023 102.24 30.3077 101.799Z" fill="#258FDC"/>
<path d="M155.073 578.864C155.073 578.864 155.052 578.822 154.999 578.821L154.978 578.832C154.978 578.884 154.998 578.916 154.998 578.916C155.051 578.917 155.073 578.886 155.073 578.864Z" fill="#258FDC"/>
<path d="M148.467 592.707C148.478 591.858 147.819 591.173 146.97 591.163C146.11 591.152 145.414 591.821 145.404 592.671C145.393 593.531 146.073 594.216 146.933 594.226C147.782 594.237 148.457 593.567 148.467 592.707Z" fill="#258FDC"/>
<path d="M139.489 606.189C139.497 605.491 138.955 604.936 138.289 604.928C137.579 604.919 137.024 605.461 137.016 606.16C137.008 606.837 137.55 607.381 138.259 607.39C138.926 607.398 139.48 606.867 139.489 606.189Z" fill="#258FDC"/>
<path d="M130.365 619.229C130.374 618.466 129.758 617.845 128.973 617.836C128.231 617.827 127.611 618.432 127.602 619.196C127.592 619.97 128.198 620.579 128.94 620.588C129.724 620.597 130.355 620.003 130.365 619.229Z" fill="#258FDC"/>
<path d="M120.955 631.856C120.967 630.857 120.16 630.03 119.171 630.018C118.128 630.005 117.312 630.813 117.3 631.812C117.288 632.823 118.084 633.66 119.127 633.673C120.116 633.685 120.943 632.867 120.955 631.856Z" fill="#258FDC"/>
<path d="M110.411 644.029C110.423 643.094 109.647 642.354 108.722 642.342C107.787 642.331 107.036 643.053 107.025 643.988C107.014 644.924 107.746 645.685 108.682 645.696C109.606 645.708 110.4 644.965 110.411 644.029Z" fill="#258FDC"/>
<path d="M99.4113 655.724C99.4222 654.821 98.6892 654.081 97.7969 654.07C96.8725 654.059 96.1326 654.781 96.1217 655.684C96.1108 656.587 96.8332 657.316 97.7576 657.328C98.6499 657.338 99.4004 656.627 99.4113 655.724V655.724Z" fill="#258FDC"/>
<path d="M88.202 666.921C88.2144 665.889 87.3648 665.019 86.3328 665.006C85.2901 664.994 84.4411 665.844 84.4287 666.876C84.4161 667.918 85.2447 668.756 86.2874 668.769C87.3194 668.781 88.1894 667.964 88.202 666.921Z" fill="#258FDC"/>
<path d="M75.9242 677.579C75.9348 676.697 75.2338 675.979 74.3845 675.969C73.503 675.958 72.7849 676.659 72.7743 677.541C72.7639 678.401 73.4648 679.129 74.3463 679.14C75.1956 679.15 75.9138 678.439 75.9242 677.579Z" fill="#258FDC"/>
<path d="M63.5449 687.697C63.5558 686.794 62.8552 686.044 61.9414 686.033C61.0492 686.022 60.2985 686.755 60.2876 687.658C60.277 688.539 61.0098 689.29 61.9021 689.301C62.8159 689.312 63.5343 688.579 63.5449 687.697Z" fill="#258FDC"/>
<path d="M50.9046 697.233C50.9165 696.244 50.1093 695.417 49.0881 695.404C48.0882 695.392 47.2506 696.199 47.2387 697.188C47.2264 698.21 48.0443 699.037 49.0442 699.049C50.0654 699.061 50.8923 698.254 50.9046 697.233Z" fill="#258FDC"/>
<path d="M37.1311 706.195C37.14 705.453 36.5559 704.854 35.814 704.845C35.0723 704.837 34.4739 705.421 34.465 706.162C34.456 706.904 35.0402 707.503 35.7819 707.512C36.5237 707.521 37.1221 706.936 37.1311 706.195Z" fill="#258FDC"/>
<path d="M23.0316 714.54C23.0373 714.067 22.6231 713.643 22.1501 713.637C21.6449 713.631 21.2635 714.046 21.2578 714.519C21.2517 715.024 21.6234 715.415 22.1286 715.422C22.6016 715.427 23.0256 715.045 23.0316 714.54Z" fill="#258FDC"/>
<path d="M9.60598 722.291C9.61582 721.475 8.95735 720.8 8.1403 720.79C7.29111 720.78 6.61659 721.438 6.60674 722.255C6.5969 723.072 7.25536 723.747 8.10455 723.757C8.9216 723.767 9.59613 723.109 9.60598 722.291Z" fill="#258FDC"/>
<path d="M8.06398 66.8566C8.10284 63.6316 5.52213 60.9771 2.28629 60.9381C-0.938719 60.8992 -3.57181 63.4909 -3.61068 66.7159C-3.64941 69.9303 -1.07979 72.6061 2.14522 72.645C5.38107 72.684 8.02524 70.071 8.06398 66.8566Z" fill="#258FDC"/>
<path d="M21.9017 73.9906C21.9374 71.0235 19.5798 68.5868 16.6344 68.5513C13.6673 68.5155 11.2624 70.8948 11.2267 73.8619C11.1916 76.7752 13.5382 79.2227 16.5053 79.2584C19.4508 79.2939 21.8666 76.9039 21.9017 73.9906V73.9906Z" fill="#258FDC"/>
<path d="M34.2591 81.6977C34.2836 79.6659 32.6585 78.012 30.6374 77.9876C28.6271 77.9634 26.9519 79.5776 26.9274 81.6093C26.9028 83.6519 28.5389 85.2844 30.5492 85.3086C32.5702 85.333 34.2345 83.7402 34.2591 81.6977Z" fill="#258FDC"/>
<path d="M44.7392 89.9631C44.7422 89.7158 44.5296 89.5198 44.293 89.517C44.0458 89.514 43.8499 89.7051 43.8469 89.9524C43.8438 90.2104 44.035 90.4063 44.2822 90.4092C44.5188 90.4121 44.7361 90.2212 44.7392 89.9631Z" fill="#258FDC"/>
<path d="M157.925 610.852C157.934 610.11 157.35 609.512 156.608 609.503C155.867 609.494 155.268 610.078 155.259 610.82C155.25 611.562 155.834 612.16 156.576 612.169C157.318 612.178 157.916 611.594 157.925 610.852Z" fill="#258FDC"/>
<path d="M149.1 624.078C149.11 623.218 148.398 622.532 147.56 622.522C146.7 622.511 146.025 623.181 146.015 624.041C146.005 624.89 146.663 625.575 147.523 625.586C148.361 625.596 149.09 624.927 149.1 624.078Z" fill="#258FDC"/>
<path d="M138.893 636.889C138.899 636.363 138.463 635.96 137.947 635.953C137.431 635.947 137.018 636.34 137.012 636.867C137.005 637.394 137.409 637.807 137.925 637.813C138.441 637.82 138.887 637.416 138.893 636.889Z" fill="#258FDC"/>
<path d="M128.938 649.295C128.945 648.671 128.468 648.15 127.844 648.142C127.199 648.134 126.677 648.644 126.67 649.268C126.662 649.902 127.172 650.413 127.817 650.421C128.44 650.429 128.93 649.929 128.938 649.295Z" fill="#258FDC"/>
<path d="M118.3 661.241C118.307 660.617 117.798 660.106 117.174 660.098C116.54 660.091 116.018 660.59 116.01 661.213C116.003 661.848 116.512 662.37 117.147 662.377C117.77 662.385 118.292 661.875 118.3 661.241Z" fill="#258FDC"/>
<path d="M107.173 672.74C107.181 672.095 106.672 671.541 106.005 671.533C105.36 671.525 104.805 672.067 104.797 672.712C104.79 673.357 105.331 673.901 105.976 673.909C106.643 673.917 107.165 673.385 107.173 672.74Z" fill="#258FDC"/>
<path d="M95.0418 683.744C95.0465 683.357 94.7494 683.031 94.3839 683.026C93.9646 683.021 93.6705 683.34 93.6659 683.727C93.6613 684.104 93.9477 684.419 94.367 684.424C94.7325 684.428 95.0373 684.12 95.0418 683.744Z" fill="#258FDC"/>
<path d="M82.6907 694.218C82.6936 693.981 82.5025 693.775 82.2445 693.772C82.0295 693.769 81.8013 693.971 81.7985 694.207C81.7952 694.476 82.0188 694.661 82.2337 694.664C82.4918 694.667 82.6875 694.487 82.6907 694.218Z" fill="#258FDC"/>
<path d="M70.152 704.206C70.1552 703.948 69.9745 703.763 69.7166 703.76C69.48 703.757 69.2629 703.937 69.2598 704.195C69.2569 704.431 69.4694 704.638 69.706 704.641C69.9639 704.644 70.1492 704.442 70.152 704.206Z" fill="#258FDC"/>
<path d="M57.3516 713.62C57.3555 713.298 57.1007 713.026 56.7674 713.022C56.4342 713.018 56.1729 713.284 56.1691 713.606C56.1649 713.95 56.42 714.201 56.7532 714.205C57.0864 714.209 57.3475 713.964 57.3516 713.62Z" fill="#258FDC"/>
<path d="M43.9126 722.479C43.9156 722.232 43.6925 722.003 43.413 722C43.1657 721.997 42.9374 722.22 42.9344 722.467C42.9309 722.757 43.1539 722.975 43.4013 722.978C43.6807 722.981 43.9091 722.769 43.9126 722.479Z" fill="#258FDC"/>
<path d="M30.0505 730.774C30.0529 730.58 29.904 730.439 29.732 730.437C29.517 730.434 29.3756 730.572 29.3732 730.766C29.3709 730.959 29.5088 731.111 29.7239 731.114C29.8958 731.116 30.0482 730.967 30.0505 730.774Z" fill="#258FDC"/>
<path d="M15.8943 738.463C15.8957 738.344 15.8111 738.225 15.6607 738.223C15.5316 738.222 15.4227 738.339 15.4213 738.457C15.4196 738.597 15.5258 738.706 15.6548 738.707C15.8053 738.709 15.8926 738.602 15.8943 738.463Z" fill="#258FDC"/>
<path d="M2.08978 745.554C2.09522 745.102 1.74443 744.765 1.30371 744.759C0.852163 744.754 0.514905 745.083 0.509464 745.535C0.504282 745.965 0.83312 746.334 1.28467 746.34C1.72539 746.345 2.0846 745.984 2.08978 745.554Z" fill="#258FDC"/>
<path d="M6.93153 47.5112C6.95835 45.286 5.16343 43.4473 2.91662 43.4202C0.680647 43.3933 -1.15804 45.1881 -1.18485 47.4134C-1.21218 49.6816 0.582845 51.5096 2.81882 51.5366C5.06563 51.5636 6.9042 49.7794 6.93153 47.5112Z" fill="#258FDC"/>
<path d="M21.4715 54.3526C21.4989 52.0844 19.7043 50.2242 17.4144 50.1966C15.1569 50.1694 13.275 51.9853 13.2477 54.2535C13.2205 56.511 15.0578 58.3932 17.3153 58.4204C19.6052 58.448 21.4443 56.6101 21.4715 54.3526Z" fill="#258FDC"/>
<path d="M32.1132 61.6951C32.1166 61.4155 31.8829 61.1762 31.5819 61.1726C31.2702 61.1688 31.0201 61.4023 31.0167 61.6819C31.0132 61.9722 31.2571 62.2546 31.5688 62.2584C31.8698 62.262 32.1097 61.9854 32.1132 61.6951Z" fill="#258FDC"/>
<path d="M175.385 615.46C175.388 615.148 175.133 614.909 174.843 614.905C174.542 614.902 174.27 615.135 174.267 615.447C174.263 615.748 174.529 615.987 174.83 615.991C175.12 615.995 175.381 615.761 175.385 615.46Z" fill="#258FDC"/>
<path d="M167.331 628.835C167.34 628.093 166.756 627.495 166.015 627.486C165.284 627.477 164.674 628.061 164.665 628.803C164.657 629.544 165.251 630.143 165.982 630.152C166.724 630.161 167.323 629.576 167.331 628.835Z" fill="#258FDC"/>
<path d="M157.724 641.836C157.731 641.234 157.264 640.745 156.673 640.738C156.039 640.73 155.56 641.208 155.553 641.81C155.545 642.412 156.012 642.912 156.647 642.92C157.238 642.927 157.717 642.438 157.724 641.836Z" fill="#258FDC"/>
<path d="M147.326 654.43C147.329 654.14 147.064 653.879 146.763 653.875C146.472 653.872 146.211 654.127 146.208 654.417C146.204 654.729 146.459 654.968 146.75 654.972C147.051 654.976 147.322 654.742 147.326 654.43Z" fill="#258FDC"/>
<path d="M136.458 666.611C136.458 666.569 136.437 666.526 136.384 666.525C136.32 666.525 136.288 666.567 136.288 666.609C136.287 666.673 136.318 666.716 136.382 666.717C136.435 666.717 136.457 666.675 136.458 666.611Z" fill="#258FDC"/>
<path d="M125.553 678.371L125.501 678.339L125.437 678.37C125.437 678.412 125.479 678.423 125.479 678.423C125.5 678.423 125.553 678.413 125.553 678.371V678.371Z" fill="#258FDC"/>
<path d="M114.452 689.687C114.454 689.526 114.305 689.384 114.155 689.382C114.004 689.381 113.863 689.519 113.861 689.68C113.859 689.841 113.997 689.972 114.148 689.974C114.298 689.975 114.45 689.848 114.452 689.687Z" fill="#258FDC"/>
<path d="M102.462 700.52C102.463 700.455 102.388 700.412 102.346 700.411C102.324 700.411 102.248 700.453 102.247 700.517C102.247 700.571 102.322 700.604 102.343 700.605C102.386 700.605 102.462 700.574 102.462 700.52Z" fill="#258FDC"/>
<path d="M90.1861 710.866C90.1865 710.835 90.1446 710.813 90.1129 710.813C90.0708 710.812 90.0705 710.833 90.0701 710.865C90.0699 710.886 90.0696 710.907 90.1118 710.908C90.1434 710.908 90.1858 710.888 90.1861 710.866Z" fill="#258FDC"/>
<path d="M77.5108 720.713L77.4797 720.649C77.4373 720.648 77.437 720.669 77.437 720.669C77.4364 720.722 77.4361 720.744 77.4786 720.744C77.4786 720.744 77.5107 720.723 77.5108 720.713Z" fill="#258FDC"/>
<path d="M64.4959 730.007C64.4963 729.975 64.4752 729.964 64.433 729.964C64.4224 729.964 64.4012 729.974 64.4008 730.006C64.4005 730.037 64.4214 730.048 64.432 730.048C64.4742 730.049 64.4955 730.039 64.4959 730.007Z" fill="#258FDC"/>
<path d="M37.3371 747L37.2741 746.936C37.2634 746.936 37.2524 746.967 37.2524 746.967C37.2519 747.01 37.2621 747.042 37.2728 747.042C37.2728 747.042 37.3369 747.011 37.3371 747Z" fill="#258FDC"/>
<path d="M23.2568 754.658C23.2574 754.605 23.2469 754.594 23.2257 754.594C23.1832 754.593 23.1725 754.604 23.1718 754.657C23.1718 754.657 23.1819 754.7 23.2244 754.7C23.2457 754.7 23.2565 754.679 23.2568 754.658Z" fill="#258FDC"/>
<path d="M8.99125 761.711C8.99216 761.635 8.93926 761.559 8.8425 761.558C8.778 761.558 8.70188 761.632 8.70097 761.707C8.69968 761.815 8.77437 761.859 8.83888 761.859C8.93564 761.86 8.98995 761.818 8.99125 761.711Z" fill="#258FDC"/>
<path d="M5.46463 28.2803C5.47772 27.1945 4.60692 26.2916 3.51041 26.2784C2.40307 26.265 1.53229 27.1469 1.51921 28.2327C1.506 29.3292 2.35515 30.2426 3.46248 30.2559C4.55899 30.2691 5.45142 29.3768 5.46463 28.2803Z" fill="#258FDC"/>
<path d="M19.5347 34.8471C19.5446 34.03 18.9071 33.388 18.1225 33.3786C17.327 33.369 16.6635 33.9953 16.6537 34.8124C16.6445 35.5756 17.2925 36.2285 18.088 36.2381C18.8727 36.2475 19.5255 35.6103 19.5347 34.8471Z" fill="#258FDC"/>
<path d="M32.6419 41.9185C32.6431 41.8219 32.5581 41.7455 32.4398 41.744C32.3323 41.7427 32.2453 41.8171 32.2442 41.9137C32.2426 42.0427 32.3274 42.1513 32.4349 42.1526C32.5532 42.1541 32.6404 42.0475 32.6419 41.9185Z" fill="#258FDC"/>
<path d="M193.296 620.03C193.297 619.869 193.148 619.738 193.009 619.737C192.815 619.734 192.706 619.862 192.704 620.023C192.702 620.195 192.808 620.325 193.002 620.328C193.141 620.329 193.293 620.202 193.296 620.03Z" fill="#258FDC"/>
<path d="M185.607 633.528C185.615 632.862 185.073 632.307 184.407 632.299C183.697 632.29 183.142 632.832 183.134 633.498C183.126 634.197 183.668 634.752 184.377 634.761C185.044 634.769 185.599 634.227 185.607 633.528Z" fill="#258FDC"/>
<path d="M176.556 646.708C176.565 645.966 175.981 645.335 175.24 645.326C174.498 645.318 173.899 645.934 173.89 646.676C173.881 647.417 174.465 648.016 175.207 648.025C175.949 648.034 176.547 647.45 176.556 646.708Z" fill="#258FDC"/>
<path d="M166.177 659.485C166.181 659.152 165.937 658.88 165.593 658.876C165.271 658.872 164.999 659.137 164.995 659.471C164.991 659.782 165.257 660.054 165.579 660.058C165.923 660.062 166.174 659.797 166.177 659.485Z" fill="#258FDC"/>
<path d="M1.84573 784.366C1.84624 784.324 1.81499 784.281 1.76182 784.28C1.69807 784.279 1.66568 784.321 1.66517 784.364C1.6644 784.428 1.69563 784.481 1.75939 784.482C1.81256 784.483 1.84496 784.43 1.84573 784.366Z" fill="#258FDC"/>
<path d="M4.72707 9.17646C4.73186 8.77871 4.43437 8.48479 4.05816 8.48026C3.64969 8.47534 3.35591 8.76213 3.35112 9.15988C3.34658 9.5361 3.63324 9.8406 4.04171 9.84552C4.41792 9.85005 4.72253 9.55268 4.72707 9.17646Z" fill="#258FDC"/>
<path d="M19.3165 15.4806C19.3202 15.1689 19.0541 14.9506 18.7638 14.9471C18.4628 14.9435 18.2237 15.1557 18.22 15.4674C18.2165 15.7577 18.4499 16.0186 18.7509 16.0222C19.0411 16.0257 19.313 15.7709 19.3165 15.4806Z" fill="#258FDC"/>
<path d="M193.842 651.464C193.842 651.41 193.767 651.377 193.735 651.377C193.66 651.376 193.616 651.408 193.616 651.462C193.615 651.526 193.657 651.58 193.733 651.581C193.765 651.582 193.841 651.529 193.842 651.464Z" fill="#258FDC"/>
<path d="M184.535 664.437C184.537 664.308 184.42 664.167 184.324 664.166C184.173 664.164 184.053 664.302 184.052 664.431C184.05 664.549 184.167 664.669 184.318 664.671C184.414 664.672 184.534 664.555 184.535 664.437Z" fill="#258FDC"/>
</svg>
