<svg width="96" height="20" viewBox="0 0 96 20" fill="none" xmlns="http://www.w3.org/2000/svg">
<path d="M0.432 15.28C0.48 12.76 2.88 11.248 5.256 11.248C6.72 11.248 8.16 11.824 9.048 13.096V10.648C9.072 7.768 7.416 6.856 6.336 6.88C4.848 6.928 4.656 8.848 6.36 9.016C6.288 10.24 5.088 10.936 3.936 10.936C2.88 10.936 1.848 10.336 1.824 9.04C1.992 6.712 4.536 6.04 6.744 6.112C10.32 6.136 12.72 8.224 12.72 11.824V15.112C12.72 16.432 12.744 17.992 13.776 19H12.504C11.688 19 9.672 18.904 9.048 17.536V17.464C8.184 18.712 6.744 19.264 5.328 19.264C2.928 19.264 0.48 17.728 0.432 15.28ZM9.048 14.872C9.048 13.384 7.824 12.544 6.576 12.544C5.328 12.544 4.08 13.384 4.104 15.28C4.08 17.176 5.328 18.04 6.576 18.04C7.824 18.04 9.048 17.2 9.048 15.688V14.872ZM15.6219 11.92C15.6219 10.6 15.5739 9.04 14.5659 8.032C16.4379 7.96 18.1899 7.168 19.2939 6.376V8.368C20.0619 6.832 21.6459 6.064 23.2299 6.064C25.4139 6.064 27.5739 7.552 27.5019 10.6H23.8299V10.408C23.7579 8.032 22.8219 7.072 21.8139 7.072C20.6139 7.072 19.2939 8.488 19.2939 10.528V15.112C19.2939 16.432 19.3179 17.992 20.3499 19H14.5659C15.5739 17.992 15.6219 16.432 15.6219 15.112V11.92ZM28.134 7.192V6.376C29.814 6.256 32.502 4.384 32.862 3.376V6.376H35.382V7.192H32.862V14.08C32.862 16.36 33.318 17.776 35.454 17.32C35.142 18.472 33.87 19.264 32.55 19.264C30.894 19.264 29.19 18.064 29.19 14.824V7.192H28.134ZM35.8254 12.688C35.8254 9.04 38.5614 6.088 41.9454 6.088C45.3054 6.088 48.0654 9.04 48.0654 12.688C48.0654 16.336 45.3054 19.288 41.9454 19.288C38.5614 19.288 35.8254 16.336 35.8254 12.688ZM41.9454 6.88C40.6014 6.88 39.4974 9.472 39.4974 12.688C39.4974 15.88 40.6014 18.496 41.9454 18.496C43.2894 18.496 44.3934 15.88 44.3934 12.688C44.3934 9.472 43.2894 6.88 41.9454 6.88ZM54.8734 19H49.0894C50.0974 17.992 50.1454 16.432 50.1454 15.112V7.192H49.0894V6.376H50.1454V6.16C50.1454 2.128 52.6894 0.711999 55.3054 0.688C57.5854 0.615999 59.8414 1.312 59.7694 3.856C59.7214 5.248 58.4734 6.016 57.2494 6.016C56.2174 6.016 55.2094 5.464 55.0174 4.216C56.9614 4.144 56.7694 1.552 55.2574 1.576C54.2254 1.6 53.7934 2.368 53.8174 5.224V6.376H56.3374V7.192H53.8174V15.112C53.8174 16.432 53.8414 17.992 54.8734 19ZM56.4626 19C57.9986 17.992 58.8146 16.432 59.4866 15.112L63.5426 7.144H61.2146C59.0306 7.144 57.9266 8.272 57.1826 9.808L57.9266 6.376H68.6546C67.1186 7.36 66.3026 8.92 65.6306 10.264L61.5746 18.232H64.7186C66.9266 18.232 68.0066 17.104 68.7506 15.568L68.0066 19H56.4626ZM75.3349 19H69.5509C70.5589 17.992 70.6069 16.432 70.6069 15.112V11.92C70.6069 10.6 70.5589 9.04 69.5509 8.032C71.4229 7.96 73.1749 7.168 74.2789 6.376V15.112C74.2789 16.432 74.3029 17.992 75.3349 19ZM69.6949 4.768C69.3109 3.688 70.1029 2.344 71.4949 1.816C71.9029 1.672 72.3109 1.6 72.6949 1.6C73.6309 1.6 74.4469 2.032 74.7349 2.824C75.1189 3.904 74.3269 5.224 72.9349 5.752C72.5269 5.896 72.1189 5.968 71.7349 5.968C70.7989 5.968 69.9589 5.536 69.6949 4.768ZM76.302 12.688C76.302 9.04 79.038 6.088 82.422 6.088C85.782 6.088 88.518 9.04 88.542 12.688C88.542 12.832 88.518 12.952 88.518 13.096H79.974C79.854 15.664 80.766 18.52 83.142 18.544C84.822 18.568 85.11 16.288 83.526 16.096C83.358 14.56 84.486 13.744 85.614 13.744C86.646 13.744 87.702 14.44 87.726 15.952C87.678 18.28 85.23 19.288 83.094 19.288C78.702 19.312 76.326 16.096 76.302 12.688ZM82.422 6.88C81.126 6.88 80.07 9.256 79.974 12.28H84.846C84.774 9.256 83.718 6.88 82.422 6.88ZM95.2311 19H89.4471C90.4551 17.992 90.5031 16.432 90.5031 15.112V6.256C90.5031 4.912 90.4551 3.352 89.4471 2.344C91.3191 2.272 93.0711 1.48 94.1751 0.688V15.112C94.1751 16.432 94.1991 17.992 95.2311 19Z" fill="#4384B6"/>
</svg>
