<svg width="64" height="38" viewBox="0 0 64 38" fill="none" xmlns="http://www.w3.org/2000/svg">
<rect width="64" height="38" rx="19" fill="white"/>
<path d="M12.072 27C13.608 25.992 14.424 24.432 15.096 23.112L19.152 15.144H16.824C14.64 15.144 13.536 16.272 12.792 17.808L13.536 14.376H24.264C22.728 15.36 21.912 16.92 21.24 18.264L17.184 26.232H20.328C22.536 26.232 23.616 25.104 24.36 23.568L23.616 27H12.072ZM30.9443 27H25.1603C26.1683 25.992 26.2163 24.432 26.2163 23.112V19.92C26.2163 18.6 26.1683 17.04 25.1603 16.032C27.0323 15.96 28.7843 15.168 29.8883 14.376V23.112C29.8883 24.432 29.9123 25.992 30.9443 27ZM25.3043 12.768C24.9203 11.688 25.7123 10.344 27.1043 9.816C27.5123 9.672 27.9203 9.6 28.3043 9.6C29.2403 9.6 30.0563 10.032 30.3443 10.824C30.7283 11.904 29.9363 13.224 28.5443 13.752C28.1363 13.896 27.7283 13.968 27.3443 13.968C26.4083 13.968 25.5683 13.536 25.3043 12.768ZM31.9114 20.688C31.9114 17.04 34.6474 14.088 38.0314 14.088C41.3914 14.088 44.1274 17.04 44.1514 20.688C44.1514 20.832 44.1274 20.952 44.1274 21.096H35.5834C35.4634 23.664 36.3754 26.52 38.7514 26.544C40.4314 26.568 40.7194 24.288 39.1354 24.096C38.9674 22.56 40.0954 21.744 41.2234 21.744C42.2554 21.744 43.3114 22.44 43.3354 23.952C43.2874 26.28 40.8394 27.288 38.7034 27.288C34.3114 27.312 31.9354 24.096 31.9114 20.688ZM38.0314 14.88C36.7354 14.88 35.6794 17.256 35.5834 20.28H40.4554C40.3834 17.256 39.3274 14.88 38.0314 14.88ZM50.8404 27H45.0564C46.0644 25.992 46.1124 24.432 46.1124 23.112V14.256C46.1124 12.912 46.0644 11.352 45.0564 10.344C46.9284 10.272 48.6804 9.48 49.7844 8.688V23.112C49.7844 24.432 49.8084 25.992 50.8404 27Z" fill="#4384B6"/>
</svg>
